<svg width="191" height="57" viewBox="0 0 191 57" fill="none" xmlns="http://www.w3.org/2000/svg">
<path d="M0.36 56V-3.8147e-06H10.12V56H0.36ZM14.28 30.64V21.12H18.68C19.5333 21.12 20.3867 21.0133 21.24 20.8C22.0933 20.5333 22.7867 19.9733 23.32 19.12C23.9067 18.2667 24.2 16.9867 24.2 15.28C24.2 13.6267 23.9067 12.4 23.32 11.6C22.7867 10.7467 22.0933 10.1867 21.24 9.92C20.44 9.65333 19.5867 9.52 18.68 9.52H14.28V-3.8147e-06H19.32C22.9467 -3.8147e-06 25.8267 0.639996 27.96 1.92C30.1467 3.14666 31.72 4.93333 32.68 7.28C33.64 9.57333 34.12 12.3467 34.12 15.6C34.12 19.0667 33.5867 21.92 32.52 24.16C31.5067 26.3467 29.9067 27.9733 27.72 29.04C25.5867 30.1067 22.7867 30.64 19.32 30.64H14.28ZM38.7975 56V11.2H48.2375V16.56C48.8242 15.76 49.6242 14.9333 50.6375 14.08C51.7042 13.2267 52.9575 12.48 54.3975 11.84C55.8375 11.2 57.3575 10.88 58.9575 10.88C59.3308 10.88 59.7308 10.88 60.1575 10.88C60.5842 10.88 61.0108 10.88 61.4375 10.88L59.2775 20.16C57.4108 20.16 55.6242 20.7467 53.9175 21.92C52.2642 23.04 50.9042 24.48 49.8375 26.24C48.7708 27.9467 48.2375 29.7067 48.2375 31.52V56H38.7975ZM79.5906 56.08C77.6173 56.08 75.7506 55.7333 73.9906 55.04C72.284 54.2933 70.7906 53.3067 69.5106 52.08C68.2306 50.8 67.2173 49.3067 66.4706 47.6C65.7773 45.84 65.4306 43.9733 65.4306 42V25.76C65.4306 23.7333 65.7506 21.84 66.3906 20.08C67.084 18.32 68.044 16.7733 69.2706 15.44C70.5506 14.1067 72.044 13.0667 73.7506 12.32C75.5106 11.5733 77.4573 11.2 79.5906 11.2V20.24C78.524 20.24 77.6173 20.5067 76.8706 21.04C76.1773 21.5733 75.6173 22.2933 75.1906 23.2C74.8173 24.1067 74.6306 25.1467 74.6306 26.32V41.44C74.6306 42.4 74.8173 43.3333 75.1906 44.24C75.6173 45.0933 76.204 45.7867 76.9506 46.32C77.7506 46.8 78.6306 47.04 79.5906 47.04V56.08ZM83.4306 56.08V47.04C84.444 47.04 85.324 46.8 86.0706 46.32C86.8173 45.7867 87.3773 45.0933 87.7506 44.24C88.1773 43.3867 88.3906 42.48 88.3906 41.52V26.32C88.3906 25.2 88.204 24.1867 87.8306 23.28C87.4573 22.32 86.8973 21.5733 86.1506 21.04C85.404 20.5067 84.4973 20.24 83.4306 20.24V11.2C85.564 11.2 87.484 11.5733 89.1906 12.32C90.9506 13.0667 92.444 14.1067 93.6706 15.44C94.9506 16.7733 95.9106 18.32 96.5506 20.08C97.1906 21.84 97.5106 23.7333 97.5106 25.76V42C97.5106 43.9733 97.1373 45.84 96.3906 47.6C95.6973 49.3067 94.7106 50.8 93.4306 52.08C92.1506 53.3067 90.6573 54.2933 88.9506 55.04C87.244 55.7333 85.404 56.08 83.4306 56.08ZM123.971 56L103.251 6.32V-3.8147e-06H110.931L127.331 39.76L137.491 16.88H138.291V39.12L130.771 56H123.971ZM103.251 56V18.88H103.971L113.011 40.56V56H103.251ZM142.451 56V-3.8147e-06H152.211V56H142.451ZM172.794 56.08C170.82 56.08 168.954 55.7333 167.194 55.04C165.487 54.2933 163.994 53.3067 162.714 52.08C161.434 50.8 160.42 49.3067 159.674 47.6C158.98 45.84 158.634 43.9733 158.634 42V25.76C158.634 23.7333 158.954 21.84 159.594 20.08C160.287 18.32 161.247 16.7733 162.474 15.44C163.754 14.1067 165.247 13.0667 166.954 12.32C168.714 11.5733 170.66 11.2 172.794 11.2V20.24C171.727 20.24 170.82 20.5067 170.074 21.04C169.38 21.5733 168.82 22.2933 168.394 23.2C168.02 24.1067 167.834 25.1467 167.834 26.32V41.44C167.834 42.4 168.02 43.3333 168.394 44.24C168.82 45.0933 169.407 45.7867 170.154 46.32C170.954 46.8 171.834 47.04 172.794 47.04V56.08ZM176.634 56.08V47.04C177.647 47.04 178.527 46.8 179.274 46.32C180.02 45.7867 180.58 45.0933 180.954 44.24C181.38 43.3867 181.594 42.48 181.594 41.52V26.32C181.594 25.2 181.407 24.1867 181.034 23.28C180.66 22.32 180.1 21.5733 179.354 21.04C178.607 20.5067 177.7 20.24 176.634 20.24V11.2C178.767 11.2 180.687 11.5733 182.394 12.32C184.154 13.0667 185.647 14.1067 186.874 15.44C188.154 16.7733 189.114 18.32 189.754 20.08C190.394 21.84 190.714 23.7333 190.714 25.76V42C190.714 43.9733 190.34 45.84 189.594 47.6C188.9 49.3067 187.914 50.8 186.634 52.08C185.354 53.3067 183.86 54.2933 182.154 55.04C180.447 55.7333 178.607 56.08 176.634 56.08Z" fill="#EF8518"/>
</svg>
